<svg width="49" height="49" viewBox="0 0 49 49" fill="none" xmlns="http://www.w3.org/2000/svg">
<circle cx="24.098" cy="24.098" r="24.098" fill="white" fill-opacity="0.55"/>
<path d="M31 20L27 24H30C30 25.5913 29.3679 27.1174 28.2426 28.2426C27.1174 29.3679 25.5913 30 24 30C23 30 22.03 29.75 21.2 29.3L19.74 30.76C20.97 31.54 22.43 32 24 32C26.1217 32 28.1566 31.1571 29.6569 29.6569C31.1571 28.1566 32 26.1217 32 24H35L31 20ZM18 24C18 22.4087 18.6321 20.8826 19.7574 19.7574C20.8826 18.6321 22.4087 18 24 18C25 18 25.97 18.25 26.8 18.7L28.26 17.24C27.03 16.46 25.57 16 24 16C21.8783 16 19.8434 16.8429 18.3431 18.3431C16.8429 19.8434 16 21.8783 16 24H13L17 28L21 24" fill="white"/>
</svg>
